<?xml version="1.0" standalone="no"?>
<!DOCTYPE svg PUBLIC "-//W3C//DTD SVG 20010904//EN"
 "http://www.w3.org/TR/2001/REC-SVG-20010904/DTD/svg10.dtd">
<svg version="1.0" xmlns="http://www.w3.org/2000/svg"
 width="700.000000pt" height="700.000000pt" viewBox="0 0 700.000000 700.000000"
 preserveAspectRatio="xMidYMid meet">
<metadata>
Created by potrace 1.11, written by Peter Selinger 2001-2013
</metadata>
<g transform="translate(0.000000,700.000000) scale(0.100000,-0.100000)"
fill="#000000" stroke="none">
<path d="M3369 6740 c-113 -23 -217 -77 -305 -157 -35 -32 -104 -117 -104
-127 0 -5 -9 -20 -20 -35 -28 -40 -69 -172 -73 -238 l-4 -58 -44 -13 c-206
-62 -342 -170 -429 -341 -52 -103 -78 -260 -59 -363 3 -21 4 -38 0 -38 -17 0
-81 22 -82 28 -16 142 -71 262 -158 348 -107 106 -234 158 -386 157 -184 -1
-346 -91 -443 -247 -43 -68 -82 -179 -82 -230 0 -31 -4 -35 -33 -41 -75 -16
-182 -78 -248 -144 -108 -108 -160 -238 -156 -391 l2 -76 -53 -34 c-169 -110
-267 -341 -227 -535 18 -89 18 -91 -6 -107 -71 -46 -146 -150 -180 -249 -27
-80 -36 -209 -19 -280 18 -80 74 -190 123 -245 l44 -48 -30 -65 c-102 -216
-52 -467 125 -626 47 -43 85 -66 168 -105 8 -4 38 -12 65 -19 49 -12 51 -13
53 -49 15 -275 262 -506 532 -499 l60 2 1 -35 c1 -45 1 -1399 0 -1422 -1 -17
-31 -18 -483 -18 -266 0 -512 0 -546 0 -58 0 -67 -3 -93 -31 -36 -39 -38 -83
-5 -124 l24 -30 2783 -3 c2522 -2 2785 -1 2806 14 56 36 59 112 6 154 -23 18
-41 20 -159 20 -121 0 -134 2 -135 18 -4 94 -3 1436 2 1443 3 6 39 11 80 13
93 4 146 18 231 63 156 81 277 269 278 429 l0 40 53 13 c138 35 290 151 349
267 83 161 83 348 0 510 l-20 39 43 47 c78 86 124 199 132 318 11 160 -49 313
-163 419 l-66 62 12 66 c17 90 18 127 3 208 -25 136 -119 278 -234 352 l-44
28 2 80 c2 152 -47 274 -157 386 -65 66 -171 128 -246 144 -29 6 -32 10 -37
58 -22 183 -152 352 -326 423 -78 31 -118 38 -217 37 -192 -1 -375 -117 -460
-288 -19 -39 -36 -78 -38 -86 -2 -8 -6 -30 -10 -49 -8 -40 -14 -72 -15 -82 -1
-6 -65 -28 -82 -28 -4 0 -3 17 1 38 20 111 -15 287 -80 399 -83 144 -263 277
-405 300 -40 6 -46 13 -51 64 -8 80 -15 113 -41 179 -70 177 -214 312 -396
374 -102 34 -210 40 -328 16z m-799 -4656 c25 -29 108 -99 145 -121 95 -58
219 -91 337 -89 l86 2 4 -102 c3 -91 6 -105 26 -127 13 -14 34 -28 46 -31 22
-5 23 -8 22 -146 0 -122 -3 -140 -17 -140 -23 0 -67 -43 -74 -73 -4 -13 -5
-88 -3 -165 3 -131 5 -142 26 -165 13 -14 34 -28 46 -31 22 -5 23 -9 21 -128
-3 -148 -1 -138 -24 -138 -11 0 -31 -14 -45 -31 -22 -26 -26 -40 -26 -95 l0
-64 -557 3 -558 2 -3 733 -2 732 52 1 c82 2 98 4 168 27 106 34 178 80 245
158 31 36 42 42 50 31 5 -7 21 -27 35 -43z m2050 -81 c89 -60 195 -91 313 -92
l47 -1 0 -735 0 -734 -560 0 -560 0 0 717 0 718 88 0 c108 0 160 9 235 39 92
37 160 83 229 155 l63 66 50 -51 c28 -28 70 -65 95 -82z"/>
<path d="M6384 440 c-179 -5 -186 -7 -212 -56 -21 -40 3 -109 44 -124 14 -6
126 -10 249 -10 218 0 225 1 250 23 38 32 44 93 12 131 -21 26 -32 30 -98 35
-41 3 -151 4 -245 1z"/>
</g>
</svg>
